<?xml version="1.0" encoding="utf-8"?>
<svg version="1.1" xmlns:xlink="http://www.w3.org/1999/xlink" width="16px" height="16px" viewBox="465 241.5  16 16" xmlns="http://www.w3.org/2000/svg">
  <path d="M 473 241.5  C 477.48 241.5  481 245.02  481 249.5  C 481 253.98  477.48 257.5  473 257.5  C 468.52 257.5  465 253.98  465 249.5  C 465 245.02  468.52 241.5  473 241.5  Z " fill-rule="nonzero" fill="#ffffff" stroke="none" />
  <path d="M 473 242  C 477.2 242  480.5 245.3  480.5 249.5  C 480.5 253.7  477.2 257  473 257  C 468.8 257  465.5 253.7  465.5 249.5  C 465.5 245.3  468.8 242  473 242  Z " stroke-width="1" stroke="#8c8c8c" fill="none" />
  <path d="M 473 253.5  C 470.76 253.5  469 251.74  469 249.5  C 469 247.26  470.76 245.5  473 245.5  C 475.24 245.5  477 247.26  477 249.5  C 477 251.74  475.24 253.5  473 253.5  " fill-rule="nonzero" fill="#8c8c8c" stroke="none" />
</svg>