<?xml version="1.0" encoding="utf-8"?>
<svg version="1.1" xmlns:xlink="http://www.w3.org/1999/xlink" width="41px" height="41px" xmlns="http://www.w3.org/2000/svg">
  <g transform="matrix(1 0 0 1 -672 -412 )">
    <path d="M 21.7679036458333 27.947265625  C 23.5741102430556 26.0787760416667  24.4772135416667 23.6764322916667  24.4772135416667 20.740234375  C 24.4772135416667 20.2775607638889  24.423828125 19.7081163194444  24.3170572916667 19.0319010416667  L 14.654296875 19.0319010416667  L 14.654296875 22.5553385416667  L 20.4466145833333 22.5553385416667  C 20.3932291666667 22.982421875  20.2464192708333 23.4273003472222  20.0061848958333 23.8899739583333  C 19.7659505208333 24.3526475694444  19.4322916666667 24.82421875  19.0052083333333 25.3046875  C 18.578125 25.78515625  17.9864366319444 26.1810980902778  17.2301432291667 26.4925130208333  C 16.4738498263889 26.8039279513889  15.615234375 26.9596354166667  14.654296875 26.9596354166667  C 12.892578125 26.9596354166667  11.3888888888889 26.3279079861111  10.1432291666667 25.064453125  C 8.89756944444445 23.8009982638889  8.27473958333333 22.2795138888889  8.27473958333333 20.5  C 8.27473958333333 18.7204861111111  8.89756944444445 17.1990017361111  10.1432291666667 15.935546875  C 11.3888888888889 14.6720920138889  12.892578125 14.0403645833333  14.654296875 14.0403645833333  C 16.2914496527778 14.0403645833333  17.6527777777778 14.5653211805556  18.73828125 15.615234375  L 21.5143229166667 12.9192708333333  C 19.5924479166667 11.1397569444444  17.3057725694444 10.25  14.654296875 10.25  C 11.8070746527778 10.25  9.38693576388889 11.2509765625  7.39388020833333 13.2529296875  C 5.40082465277778 15.2548828125  4.404296875 17.6705729166667  4.404296875 20.5  C 4.404296875 23.3294270833333  5.40082465277778 25.7451171875  7.39388020833333 27.7470703125  C 9.38693576388889 29.7490234375  11.8070746527778 30.75  14.654296875 30.75  C 17.5904947916667 30.75  19.9616970486111 29.8157552083333  21.7679036458333 27.947265625  Z M 33.6861979166667 24.904296875  L 33.6861979166667 21.9680989583333  L 36.595703125 21.9680989583333  L 36.595703125 19.0319010416667  L 33.6861979166667 19.0319010416667  L 33.6861979166667 16.095703125  L 30.75 16.095703125  L 30.75 19.0319010416667  L 27.8138020833333 19.0319010416667  L 27.8138020833333 21.9680989583333  L 30.75 21.9680989583333  L 30.75 24.904296875  L 33.6861979166667 24.904296875  Z M 38.7444661458333 2.25553385416667  C 40.2481553819444 3.75922309027777  41 5.56987847222222  41 7.6875  L 41 33.3125  C 41 35.4301215277778  40.2481553819444 37.2407769097222  38.7444661458333 38.7444661458333  C 37.2407769097222 40.2481553819444  35.4301215277778 41  33.3125 41  L 7.6875 41  C 5.56987847222222 41  3.75922309027778 40.2481553819444  2.25553385416667 38.7444661458333  C 0.751844618055555 37.2407769097222  0 35.4301215277778  0 33.3125  L 0 7.6875  C 0 5.56987847222222  0.751844618055555 3.75922309027777  2.25553385416667 2.25553385416667  C 3.75922309027778 0.751844618055553  5.56987847222222 0  7.6875 0  L 33.3125 0  C 35.4301215277778 0  37.2407769097222 0.751844618055553  38.7444661458333 2.25553385416667  Z " fill-rule="nonzero" fill="#341b5d" stroke="none" transform="matrix(1 0 0 1 672 412 )" />
  </g>
</svg>