<?xml version="1.0" encoding="utf-8"?>
<svg version="1.1" xmlns:xlink="http://www.w3.org/1999/xlink" width="41px" height="41px" xmlns="http://www.w3.org/2000/svg">
  <g transform="matrix(1 0 0 1 -621 -412 )">
    <path d="M 7.6875 0  L 33.3125 0  C 35.4301215277778 0  37.2407769097222 0.751844618055553  38.7444661458333 2.25553385416667  C 40.2481553819444 3.75922309027777  41 5.56987847222222  41 7.6875  L 41 33.3125  C 41 35.4301215277778  40.2481553819444 37.2407769097222  38.7444661458333 38.7444661458333  C 37.2407769097222 40.2481553819444  35.4301215277778 41  33.3125 41  L 7.6875 41  C 5.56987847222222 41  3.75922309027778 40.2481553819444  2.25553385416667 38.7444661458333  C 0.751844618055555 37.2407769097222  0 35.4301215277778  0 33.3125  L 0 7.6875  C 0 5.56987847222222  0.751844618055555 3.75922309027777  2.25553385416667 2.25553385416667  C 3.75922309027778 0.751844618055553  5.56987847222222 0  7.6875 0  Z M 33.4192708333333 30.0026041666667  C 33.9175347222222 29.5043402777778  34.1666666666667 28.8993055555556  34 28.1875  L 34 16.5494791666667  C 33.6150173611111 17.1723090277778  33.0455729166667 17.6616753472222  32.4583333333333 18.017578125  C 31.8532986111111 18.4090711805556  30.6743706597222 19.1653645833333  28.9215494791667 20.2864583333333  C 27.1687282986111 21.4075520833333  25.8207465277778 22.2884114583333  24.8776041666667 22.9290364583333  C 23.1336805555556 24.1569010416667  21.6744791666667 24.7708333333333  20.5 24.7708333333333  C 19.3255208333333 24.7708333333333  17.8663194444444 24.1569010416667  16.1223958333333 22.9290364583333  C 15.2860243055556 22.3595920138889  14.0225694444444 21.5365668402778  12.33203125 20.4599609375  C 10.6414930555556 19.3833550347222  9.37803819444445 18.5603298611111  8.54166666666667 17.9908854166667  C 8.328125 17.8485243055556  8.03450520833333 17.6082899305556  7.66080729166667 17.2701822916667  C 7.287109375 16.9320746527778  7.01128472222222 16.6918402777778  7 16.5494791666667  L 7 28.1875  C 6.83333333333333 28.8993055555556  7.08246527777778 29.5043402777778  7.58072916666667 30.0026041666667  C 8.07899305555556 30.5008680555556  8.68402777777778 30.75  9.39583333333333 30  L 31.6041666666667 30  C 32.3159722222222 30.75  32.9210069444444 30.5008680555556  33.4192708333333 30.0026041666667  Z M 33.3258463541667 14.8544921875  C 33.8863932291667 14.1515842013889  34.1666666666667 13.4976128472222  34.1666666666667 12.892578125  C 34.1666666666667 12.1629774305556  33.9219835069444 11.5401475694444  33.4326171875 11.0240885416667  C 32.9432508680556 10.5080295138889  32.3337673611111 10.25  31.6041666666667 11  L 9.39583333333333 11  C 8.68402777777778 10.25  8.07899305555556 10.4991319444444  7.58072916666667 10.9973958333333  C 7.08246527777778 11.4956597222222  6.83333333333333 12.1006944444444  6.83333333333333 12.8125  C 6.83333333333333 13.4709201388889  7.10470920138889 14.1515842013889  7.6474609375 14.8544921875  C 8.19021267361111 15.5574001736111  8.79079861111111 16.1312934027778  9.44921875 16.576171875  C 10.2855902777778 17.1456163194444  11.5090060763889 17.9375  13.1194661458333 18.9518229166667  C 14.7299262152778 19.9661458333333  15.8821614583333 20.7046440972222  16.576171875 21.1673177083333  C 16.6295572916667 21.2029079861111  16.7808159722222 21.3052300347222  17.0299479166667 21.4742838541667  C 17.2790798611111 21.6433376736111  17.4659288194444 21.7679036458333  17.5904947916667 21.8479817708333  C 17.7150607638889 21.9280598958333  17.9019097222222 22.0437282986111  18.1510416666667 22.1949869791667  C 18.4001736111111 22.3462456597222  18.6092664930556 22.4619140625  18.7783203125 22.5419921875  C 18.9473741319444 22.6220703125  19.138671875 22.7065972222222  19.3522135416667 22.7955729166667  C 19.5657552083333 22.8845486111111  19.7659505208333 22.9512803819444  19.9527994791667 22.9957682291667  C 20.1396484375 23.0402560763889  20.3220486111111 23.0625  20.5 23.0625  C 20.6779513888889 23.0625  20.8603515625 23.0402560763889  21.0472005208333 22.9957682291667  C 21.2340494791667 22.9512803819444  21.4342447916667 22.8845486111111  21.6477864583333 22.7955729166667  C 21.861328125 22.7065972222222  22.0526258680556 22.6220703125  22.2216796875 22.5419921875  C 22.3907335069444 22.4619140625  22.5998263888889 22.3462456597222  22.8489583333333 22.1949869791667  C 23.0980902777778 22.0437282986111  23.2849392361111 21.9280598958333  23.4095052083333 21.8479817708333  C 23.5340711805556 21.7679036458333  23.7209201388889 21.6433376736111  23.9700520833333 21.4742838541667  C 24.2191840277778 21.3052300347222  24.3704427083333 21.2029079861111  24.423828125 21.1673177083333  L 31.55078125 16.5227864583333  C 32.1736111111111 16.1134982638889  32.7652994791667 15.5574001736111  33.3258463541667 14.8544921875  Z " fill-rule="nonzero" fill="#4b2c80" stroke="none" transform="matrix(1 0 0 1 621 412 )" />
  </g>
</svg>