<?xml version="1.0" encoding="utf-8"?>
<svg version="1.1" xmlns:xlink="http://www.w3.org/1999/xlink" width="41px" height="41px" xmlns="http://www.w3.org/2000/svg">
  <g transform="matrix(1 0 0 1 -724 -412 )">
    <path d="M 7.6875 0  L 33.3125 0  C 35.4301215277778 0  37.2407769097222 0.751844618055553  38.7444661458333 2.25553385416667  C 40.2481553819444 3.75922309027777  41 5.56987847222222  41 7.6875  L 41 33.3125  C 41 35.4301215277778  40.2481553819444 37.2407769097222  38.7444661458333 38.7444661458333  C 37.2407769097222 40.2481553819444  35.4301215277778 41  33.3125 41  L 13.9602864583333 41  C 15.4728732638889 38.8289930555556  16.4338107638889 36.9605034722222  16.8430989583333 35.39453125  C 17.0032552083333 34.7894965277778  17.4748263888889 32.9299045138889  18.2578125 29.8157552083333  C 18.6315104166667 30.509765625  19.2854817708333 31.1059027777778  20.2197265625 31.6041666666667  C 21.1539713541667 32.1024305555556  22.1549479166667 32.3515625  23.22265625 32.3515625  C 26.4435763888889 32.3515625  29.0728081597222 31.0391710069444  31.1103515625 28.4143880208333  C 33.1478949652778 25.7896050347222  34.1666666666667 22.4663628472222  34.1666666666667 18.4446614583333  C 34.1666666666667 16.9498697916667  33.8552517361111 15.5040147569444  33.232421875 14.1070963541667  C 32.6095920138889 12.7101779513889  31.7509765625 11.4734157986111  30.6565755208333 10.3968098958333  C 29.5621744791667 9.32020399305555  28.2052951388889 8.45713975694444  26.5859375 7.8076171875  C 24.9665798611111 7.15809461805555  23.2137586805556 6.83333333333333  21.3274739583333 6.83333333333333  C 19.4767795138889 6.83333333333333  17.7462022569444 7.0869140625  16.1357421875 7.59407552083333  C 14.5252821180556 8.10123697916667  13.1639539930556 8.78190104166667  12.0517578125 9.63606770833333  C 10.9395616319444 10.490234375  9.98307291666667 11.4645182291667  9.18229166666667 12.5589192708333  C 8.38151041666667 13.6533203125  7.78982204861111 14.7922092013889  7.4072265625 15.9755859375  C 7.02463107638889 17.1589626736111  6.83333333333333 18.337890625  6.83333333333333 19.5123697916667  C 6.83333333333333 21.3274739583333  7.18478732638889 22.9290364583333  7.8876953125 24.3170572916667  C 8.59060329861111 25.705078125  9.62717013888889 26.6838107638889  10.9973958333333 27.2532552083333  C 11.2287326388889 27.3422309027778  11.4378255208333 27.3422309027778  11.6246744791667 27.2532552083333  C 11.8115234375 27.1642795138889  11.9405381944444 26.9952256944444  12.01171875 26.74609375  C 12.1896701388889 25.9631076388889  12.3231336805556 25.4203559027778  12.412109375 25.1178385416667  C 12.5188802083333 24.7085503472222  12.4210069444444 24.3348524305556  12.1184895833333 23.9967447916667  C 11.2287326388889 22.8934461805556  10.7838541666667 21.5588107638889  10.7838541666667 19.9928385416667  C 10.7838541666667 17.3235677083333  11.7047526041667 15.0413411458333  13.5465494791667 13.1461588541667  C 15.3883463541667 11.2509765625  17.7951388888889 10.3033854166667  20.7669270833333 10.3033854166667  C 23.4184027777778 10.3033854166667  25.4870876736111 11.0240885416667  26.9729817708333 12.4654947916667  C 28.4588758680556 13.9069010416667  29.2018229166667 15.775390625  29.2018229166667 18.0709635416667  C 29.2018229166667 21.060546875  28.6012369791667 23.6052517361111  27.4000651041667 25.705078125  C 26.1988932291667 27.8049045138889  24.6551649305556 28.8548177083333  22.7688802083333 28.8548177083333  C 21.701171875 28.8548177083333  20.8381076388889 28.4677734375  20.1796875 27.6936848958333  C 19.5212673611111 26.9195963541667  19.3166232638889 25.9986979166667  19.5657552083333 24.9309895833333  C 19.7081163194444 24.3259548611111  19.9439019097222 23.5029296875  20.2731119791667 22.4619140625  C 20.6023220486111 21.4208984375  20.8648003472222 20.5133463541667  21.060546875 19.7392578125  C 21.2562934027778 18.9651692708333  21.3541666666667 18.3023003472222  21.3541666666667 17.7506510416667  C 21.3541666666667 16.8786892361111  21.1183810763889 16.1535373263889  20.6468098958333 15.5751953125  C 20.1752387152778 14.9968532986111  19.5034722222222 14.7076822916667  18.6315104166667 14.7076822916667  C 17.5460069444444 14.7076822916667  16.6251085069444 15.2103949652778  15.8688151041667 16.2158203125  C 15.1125217013889 17.2212456597222  14.734375 18.4624565972222  14.734375 19.939453125  C 14.734375 21.220703125  14.9479166666667 22.2973090277778  15.375 23.1692708333333  L 12.7591145833333 34.2200520833333  C 12.33203125 35.9995659722222  12.2697482638889 38.2595486111111  12.572265625 41  L 7.6875 41  C 5.56987847222222 41  3.75922309027778 40.2481553819444  2.25553385416667 38.7444661458333  C 0.751844618055555 37.2407769097222  0 35.4301215277778  0 33.3125  L 0 7.6875  C 0 5.56987847222222  0.751844618055555 3.75922309027777  2.25553385416667 2.25553385416667  C 3.75922309027778 0.751844618055553  5.56987847222222 0  7.6875 0  Z " fill-rule="nonzero" fill="#4b2c80" stroke="none" transform="matrix(1 0 0 1 724 412 )" />
  </g>
</svg>