<?xml version="1.0" encoding="utf-8"?>
<svg version="1.1" xmlns:xlink="http://www.w3.org/1999/xlink" width="38px" height="37px" xmlns="http://www.w3.org/2000/svg">
  <g transform="matrix(1 0 0 1 -12 -20 )">
    <path d="M 21.9440104166667 30.6165364583333  C 22.0924479166667 30.4720052083333  22.1666666666667 30.2873263888889  22.1666666666667 30.0625  L 22.1666666666667 25.4375  C 22.1666666666667 25.2126736111111  22.0924479166667 25.0279947916667  21.9440104166667 24.8834635416667  C 21.7955729166667 24.7389322916667  21.6059027777778 24.6666666666667  21.375 24.6666666666667  L 16.625 24.6666666666667  C 16.3940972222222 24.6666666666667  16.2044270833333 24.7389322916667  16.0559895833333 24.8834635416667  C 15.9075520833333 25.0279947916667  15.8333333333333 25.2126736111111  15.8333333333333 25.4375  L 15.8333333333333 30.0625  C 15.8333333333333 30.2873263888889  15.9075520833333 30.4720052083333  16.0559895833333 30.6165364583333  C 16.2044270833333 30.7610677083333  16.3940972222222 30.8333333333333  16.625 30.8333333333333  L 21.375 30.8333333333333  C 21.6059027777778 30.8333333333333  21.7955729166667 30.7610677083333  21.9440104166667 30.6165364583333  Z M 28.1907552083333 15.826171875  C 28.3969184027778 15.2319878472222  28.5 14.5815972222222  28.5 13.875  C 28.5 12.4618055555556  28.0423177083333 11.1529947916667  27.126953125 9.94856770833333  C 26.2115885416667 8.744140625  25.0694444444444 7.81271701388889  23.7005208333333 7.154296875  C 22.3315972222222 6.49587673611111  20.9296875 6.16666666666667  19.4947916666667 6.16666666666667  C 15.4869791666667 6.16666666666667  12.4275173611111 7.876953125  10.31640625 11.2975260416667  C 10.0690104166667 11.6829427083333  10.1349826388889 12.0201822916667  10.5143229166667 12.3092447916667  L 13.7799479166667 14.7180989583333  C 13.8953993055556 14.814453125  14.0520833333333 14.8626302083333  14.25 14.8626302083333  C 14.5138888888889 14.8626302083333  14.7200520833333 14.7662760416667  14.8684895833333 14.5735677083333  C 15.7426215277778 13.4815538194444  16.4518229166667 12.7428385416667  16.99609375 12.357421875  C 17.5568576388889 11.9720052083333  18.2660590277778 11.779296875  19.1236979166667 11.779296875  C 19.9153645833333 11.779296875  20.6204427083333 11.9880642361111  21.2389322916667 12.4055989583333  C 21.857421875 12.8231336805556  22.1666666666667 13.296875  22.1666666666667 13.8268229166667  C 22.1666666666667 14.4370659722222  22.0017361111111 14.9268663194444  21.671875 15.2962239583333  C 21.3420138888889 15.6655815972222  20.78125 16.0269097222222  19.9895833333333 16.3802083333333  C 18.9505208333333 16.8298611111111  17.998046875 17.5244140625  17.1321614583333 18.4638671875  C 16.2662760416667 19.4033203125  15.8333333333333 20.4110243055556  15.8333333333333 21.4869791666667  L 15.8333333333333 22.3541666666667  C 15.8333333333333 22.5789930555556  15.9075520833333 22.763671875  16.0559895833333 22.908203125  C 16.2044270833333 23.052734375  16.3940972222222 23.125  16.625 23.125  L 21.375 23.125  C 21.6059027777778 23.125  21.7955729166667 23.052734375  21.9440104166667 22.908203125  C 22.0924479166667 22.763671875  22.1666666666667 22.5789930555556  22.1666666666667 22.3541666666667  C 22.1666666666667 22.0490451388889  22.3439670138889 21.6515842013889  22.6985677083333 21.1617838541667  C 23.0531684027778 20.6719835069444  23.5026041666667 20.2745225694444  24.046875 19.9694010416667  C 24.5746527777778 19.6803385416667  24.9787326388889 19.4514973958333  25.2591145833333 19.2828776041667  C 25.5394965277778 19.1142578125  25.9188368055556 18.8332248263889  26.3971354166667 18.4397786458333  C 26.8754340277778 18.0463324652778  27.2424045138889 17.6609157986111  27.498046875 17.2835286458333  C 27.7536892361111 16.9061414930556  27.9845920138889 16.4203559027778  28.1907552083333 15.826171875  Z M 35.4518229166667 9.2138671875  C 37.1506076388889 12.0482855902778  38 15.1436631944444  38 18.5  C 38 21.8563368055556  37.1506076388889 24.9517144097222  35.4518229166667 27.7861328125  C 33.7530381944444 30.6205512152778  31.4481336805556 32.8648003472222  28.537109375 34.5188802083333  C 25.6260850694444 36.1729600694444  22.4470486111111 37  19 37  C 15.5529513888889 37  12.3739149305556 36.1729600694444  9.462890625 34.5188802083333  C 6.55186631944444 32.8648003472222  4.24696180555556 30.6205512152778  2.54817708333333 27.7861328125  C 0.849392361111111 24.9517144097222  0 21.8563368055556  0 18.5  C 0 15.1436631944444  0.849392361111111 12.0482855902778  2.54817708333333 9.2138671875  C 4.24696180555556 6.37944878472222  6.55186631944444 4.13519965277777  9.462890625 2.48111979166667  C 12.3739149305556 0.827039930555552  15.5529513888889 0  19 0  C 22.4470486111111 0  25.6260850694444 0.827039930555552  28.537109375 2.48111979166667  C 31.4481336805556 4.13519965277777  33.7530381944444 6.37944878472222  35.4518229166667 9.2138671875  Z " fill-rule="nonzero" fill="#ffffff" stroke="none" transform="matrix(1 0 0 1 12 20 )" />
  </g>
</svg>