<?xml version="1.0" encoding="utf-8"?>
<svg version="1.1" xmlns:xlink="http://www.w3.org/1999/xlink" width="37px" height="37px" xmlns="http://www.w3.org/2000/svg">
  <g transform="matrix(1 0 0 1 -974 -20 )">
    <path d="M 22.8600260416667 22.8600260416667  C 24.064453125 21.6555989583333  24.6666666666667 20.2022569444444  24.6666666666667 18.5  C 24.6666666666667 16.7977430555556  24.064453125 15.3444010416667  22.8600260416667 14.1399739583333  C 21.6555989583333 12.935546875  20.2022569444444 12.3333333333333  18.5 12.3333333333333  C 16.7977430555556 12.3333333333333  15.3444010416667 12.935546875  14.1399739583333 14.1399739583333  C 12.935546875 15.3444010416667  12.3333333333333 16.7977430555556  12.3333333333333 18.5  C 12.3333333333333 20.2022569444444  12.935546875 21.6555989583333  14.1399739583333 22.8600260416667  C 15.3444010416667 24.064453125  16.7977430555556 24.6666666666667  18.5 24.6666666666667  C 20.2022569444444 24.6666666666667  21.6555989583333 24.064453125  22.8600260416667 22.8600260416667  Z M 36.8072916666667 15.3082682291667  C 36.9357638888889 15.4768880208333  37 15.6655815972222  37 15.8743489583333  L 37 21.2220052083333  C 37 21.4147135416667  36.9357638888889 21.5993923611111  36.8072916666667 21.7760416666667  C 36.6788194444444 21.9526909722222  36.5182291666667 22.0570746527778  36.3255208333333 22.0891927083333  L 31.869140625 22.763671875  C 31.5640190972222 23.630859375  31.2508680555556 24.3615451388889  30.9296875 24.9557291666667  C 31.4917534722222 25.7586805555556  32.3509114583333 26.8667534722222  33.5071614583333 28.2799479166667  C 33.6677517361111 28.47265625  33.748046875 28.6733940972222  33.748046875 28.8821614583333  C 33.748046875 29.0909288194444  33.67578125 29.2756076388889  33.53125 29.4361979166667  C 33.09765625 30.0303819444444  32.302734375 30.8975694444444  31.146484375 32.0377604166667  C 29.990234375 33.1779513888889  29.2354600694444 33.748046875  28.8821614583333 33.748046875  C 28.689453125 33.748046875  28.4806857638889 33.67578125  28.255859375 33.53125  L 24.931640625 30.9296875  C 24.2250434027778 31.2990451388889  23.4943576388889 31.6041666666667  22.7395833333333 31.8450520833333  C 22.4826388888889 34.0290798611111  22.2497829861111 35.5225694444444  22.041015625 36.3255208333333  C 21.9286024305556 36.7751736111111  21.6395399305556 37  21.173828125 37  L 15.826171875 37  C 15.6013454861111 37  15.4046223958333 36.9317491319444  15.2360026041667 36.7952473958333  C 15.0673828125 36.6587456597222  14.9750434027778 36.4861111111111  14.958984375 36.27734375  L 14.2845052083333 31.8450520833333  C 13.4976128472222 31.5881076388889  12.7749565972222 31.291015625  12.1165364583333 30.9537760416667  L 8.72005208333333 33.53125  C 8.55946180555556 33.67578125  8.35872395833333 33.748046875  8.11783854166667 33.748046875  C 7.89301215277778 33.748046875  7.69227430555556 33.6597222222222  7.515625 33.4830729166667  C 5.4921875 31.65234375  4.16731770833333 30.3033854166667  3.541015625 29.4361979166667  C 3.42860243055556 29.2756076388889  3.37239583333333 29.0909288194444  3.37239583333333 28.8821614583333  C 3.37239583333333 28.689453125  3.43663194444445 28.5047743055556  3.56510416666667 28.328125  C 3.80598958333333 27.9908854166667  4.21549479166667 27.4569227430556  4.79361979166667 26.7262369791667  C 5.37174479166667 25.9955512152778  5.80533854166667 25.4294704861111  6.09440104166667 25.0279947916667  C 5.66080729166667 24.2250434027778  5.33159722222222 23.4301215277778  5.10677083333333 22.6432291666667  L 0.698567708333333 21.9928385416667  C 0.489800347222222 21.9607204861111  0.321180555555556 21.8603515625  0.192708333333333 21.6917317708333  C 0.0642361111111111 21.5231119791667  0 21.3344184027778  0 21.1256510416667  L 0 15.7779947916667  C 0 15.5852864583333  0.0642361111111111 15.4006076388889  0.192708333333333 15.2239583333333  C 0.321180555555556 15.0473090277778  0.473741319444444 14.9429253472222  0.650390625 14.9108072916667  L 5.130859375 14.236328125  C 5.35568576388889 13.4976128472222  5.66883680555556 12.7588975694444  6.0703125 12.0201822916667  C 5.42795138888889 11.1048177083333  4.56879340277778 9.99674479166667  3.49283854166667 8.69596354166667  C 3.33224826388889 8.50325520833333  3.251953125 8.310546875  3.251953125 8.11783854166667  C 3.251953125 7.95724826388889  3.32421875 7.77256944444444  3.46875 7.56380208333333  C 3.88628472222222 6.98567708333333  4.67719184027778 6.12250434027777  5.84147135416667 4.97428385416667  C 7.00575086805556 3.82606336805555  7.76453993055556 3.251953125  8.11783854166667 3.251953125  C 8.32660590277778 3.251953125  8.53537326388889 3.33224826388889  8.744140625 3.49283854166667  L 12.068359375 6.0703125  C 12.7749565972222 5.70095486111111  13.5056423611111 5.39583333333333  14.2604166666667 5.15494791666667  C 14.5173611111111 2.97092013888889  14.7502170138889 1.47743055555555  14.958984375 0.674479166666665  C 15.0713975694444 0.224826388888887  15.3604600694444 0  15.826171875 0  L 21.173828125 0  C 21.3986545138889 0  21.5953776041667 0.0682508680555524  21.7639973958333 0.204752604166665  C 21.9326171875 0.341254340277774  22.0249565972222 0.513888888888887  22.041015625 0.72265625  L 22.7154947916667 5.15494791666667  C 23.5023871527778 5.41189236111111  24.2250434027778 5.708984375  24.8834635416667 6.04622395833333  L 28.3040364583333 3.46875  C 28.4485677083333 3.32421875  28.6412760416667 3.251953125  28.8821614583333 3.251953125  C 29.0909288194444 3.251953125  29.2916666666667 3.33224826388889  29.484375 3.49283854166667  C 31.5559895833333 5.40386284722222  32.880859375 6.76888020833333  33.458984375 7.587890625  C 33.5713975694444 7.71636284722222  33.6276041666667 7.89301215277777  33.6276041666667 8.11783854166667  C 33.6276041666667 8.310546875  33.5633680555556 8.49522569444444  33.4348958333333 8.671875  C 33.1940104166667 9.00911458333333  32.7845052083333 9.54307725694444  32.2063802083333 10.2737630208333  C 31.6282552083333 11.0044487847222  31.1946614583333 11.5705295138889  30.9055989583333 11.9720052083333  C 31.3231336805556 12.7749565972222  31.65234375 13.5618489583333  31.8932291666667 14.3326822916667  L 36.3014322916667 15.0071614583333  C 36.5101996527778 15.0392795138889  36.6788194444444 15.1396484375  36.8072916666667 15.3082682291667  Z " fill-rule="nonzero" fill="#ffffff" stroke="none" transform="matrix(1 0 0 1 974 20 )" />
  </g>
</svg>