<?xml version="1.0" encoding="utf-8"?>
<svg version="1.1" xmlns:xlink="http://www.w3.org/1999/xlink" width="33px" height="28px" xmlns="http://www.w3.org/2000/svg">
  <g transform="matrix(1 0 0 1 -31 -127 )">
    <path d="M 27.1808035714286 15.0208333333333  C 29.4888392857143 12.7361111111111  30.6428571428571 10.5729166666667  30.6428571428571 8.53125  C 30.6428571428571 7.546875  30.5108816964286 6.67795138888889  30.2469308035714 5.92447916666667  C 29.9829799107143 5.17100694444444  29.6453683035714 4.57248263888889  29.2340959821429 4.12890625  C 28.8228236607143 3.68532986111111  28.3225446428571 3.32378472222222  27.7332589285714 3.04427083333333  C 27.1439732142857 2.76475694444444  26.5669642857143 2.57638888888889  26.0022321428571 2.47916666666667  C 25.4375 2.38194444444444  24.8359375 2.33333333333333  24.1975446428571 2.33333333333333  C 23.5591517857143 2.33333333333333  22.8716517857143 2.48828125  22.1350446428571 2.79817708333333  C 21.3984375 3.10807291666667  20.7201450892857 3.49696180555555  20.1001674107143 3.96484375  C 19.4801897321429 4.43272569444444  18.94921875 4.87022569444444  18.5072544642857 5.27734375  C 18.0652901785714 5.68446180555555  17.6969866071429 6.05815972222222  17.40234375 6.3984375  C 17.1813616071429 6.66579861111111  16.8805803571429 6.79947916666667  16.5 6.79947916666667  C 16.1194196428571 6.79947916666667  15.8186383928571 6.66579861111111  15.59765625 6.3984375  C 15.3030133928571 6.05815972222222  14.9347098214286 5.68446180555555  14.4927455357143 5.27734375  C 14.05078125 4.87022569444444  13.5198102678571 4.43272569444444  12.8998325892857 3.96484375  C 12.2798549107143 3.49696180555555  11.6015625 3.10807291666667  10.8649553571429 2.79817708333333  C 10.1283482142857 2.48828125  9.44084821428572 2.33333333333333  8.80245535714286 2.33333333333333  C 8.1640625 2.33333333333333  7.5625 2.38194444444444  6.99776785714286 2.47916666666667  C 6.43303571428572 2.57638888888889  5.85602678571429 2.76475694444444  5.26674107142857 3.04427083333333  C 4.67745535714286 3.32378472222222  4.17717633928571 3.68532986111111  3.76590401785714 4.12890625  C 3.35463169642857 4.57248263888889  3.01702008928571 5.17100694444444  2.75306919642857 5.92447916666667  C 2.48911830357143 6.67795138888889  2.35714285714286 7.546875  2.35714285714286 8.53125  C 2.35714285714286 10.5729166666667  3.50502232142857 12.7300347222222  5.80078125 15.0026041666667  L 16.5 25.2109375  L 27.1808035714286 15.0208333333333  Z M 30.6612723214286 2.26041666666667  C 32.2204241071429 3.76736111111111  33 5.85763888888889  33 8.53125  C 33 11.2170138888889  31.5943080357143 13.9513888888889  28.7829241071429 16.734375  L 17.3102678571429 27.671875  C 17.0892857142857 27.890625  16.8191964285714 28  16.5 28  C 16.1808035714286 28  15.9107142857143 27.890625  15.6897321428571 27.671875  L 4.19866071428571 16.6979166666667  C 4.07589285714286 16.6006944444444  3.90708705357143 16.4427083333333  3.69224330357143 16.2239583333333  C 3.47739955357143 16.0052083333333  3.13671875 15.6072048611111  2.67020089285714 15.0299479166667  C 2.20368303571429 14.4526909722222  1.78627232142857 13.8602430555556  1.41796875 13.2526041666667  C 1.04966517857143 12.6449652777778  0.721261160714286 11.9097222222222  0.432756696428571 11.046875  C 0.144252232142857 10.1840277777778  0 9.34548611111111  0 8.53125  C 0 5.85763888888889  0.779575892857143 3.76736111111111  2.33872767857143 2.26041666666667  C 3.89787946428571 0.753472222222222  6.05245535714286 0  8.80245535714286 0  C 9.56361607142857 0  10.3401227678571 0.130642361111109  11.1319754464286 0.391927083333334  C 11.923828125 0.653211805555553  12.6604352678571 1.00564236111111  13.341796875 1.44921875  C 14.0231584821429 1.89279513888889  14.609375 2.30902777777778  15.1004464285714 2.69791666666667  C 15.5915178571429 3.08680555555555  16.0580357142857 3.5  16.5 3.9375  C 16.9419642857143 3.5  17.4084821428571 3.08680555555555  17.8995535714286 2.69791666666667  C 18.390625 2.30902777777778  18.9768415178571 1.89279513888889  19.658203125 1.44921875  C 20.3395647321429 1.00564236111111  21.076171875 0.653211805555553  21.8680245535714 0.391927083333334  C 22.6598772321429 0.130642361111109  23.4363839285714 0  24.1975446428571 0  C 26.9475446428571 0  29.1021205357143 0.753472222222222  30.6612723214286 2.26041666666667  Z " fill-rule="nonzero" fill="#ffffff" stroke="none" transform="matrix(1 0 0 1 31 127 )" />
  </g>
</svg>