<?xml version="1.0" encoding="utf-8"?>
<svg version="1.1" xmlns:xlink="http://www.w3.org/1999/xlink" width="33px" height="28px" xmlns="http://www.w3.org/2000/svg">
  <g transform="matrix(1 0 0 1 -31 -127 )">
    <path d="M 17.3102678571429 27.671875  C 17.0892857142857 27.890625  16.8191964285714 28  16.5 28  C 16.1808035714286 28  15.9107142857143 27.890625  15.6897321428571 27.671875  L 4.19866071428571 16.6979166666667  C 4.07589285714286 16.6006944444444  3.90708705357143 16.4427083333333  3.69224330357143 16.2239583333333  C 3.47739955357143 16.0052083333333  3.13671875 15.6072048611111  2.67020089285714 15.0299479166667  C 2.20368303571429 14.4526909722222  1.78627232142857 13.8602430555556  1.41796875 13.2526041666667  C 1.04966517857143 12.6449652777778  0.721261160714286 11.9097222222222  0.432756696428571 11.046875  C 0.144252232142857 10.1840277777778  0 9.34548611111111  0 8.53125  C 0 5.85763888888889  0.779575892857143 3.76736111111111  2.33872767857143 2.26041666666667  C 3.89787946428571 0.753472222222222  6.05245535714286 0  8.80245535714286 0  C 9.56361607142857 0  10.3401227678571 0.130642361111109  11.1319754464286 0.391927083333334  C 11.923828125 0.653211805555553  12.6604352678571 1.00564236111111  13.341796875 1.44921875  C 14.0231584821429 1.89279513888889  14.609375 2.30902777777778  15.1004464285714 2.69791666666667  C 15.5915178571429 3.08680555555555  16.0580357142857 3.5  16.5 3.9375  C 16.9419642857143 3.5  17.4084821428571 3.08680555555555  17.8995535714286 2.69791666666667  C 18.390625 2.30902777777778  18.9768415178571 1.89279513888889  19.658203125 1.44921875  C 20.3395647321429 1.00564236111111  21.076171875 0.653211805555553  21.8680245535714 0.391927083333334  C 22.6598772321429 0.130642361111109  23.4363839285714 0  24.1975446428571 0  C 26.9475446428571 0  29.1021205357143 0.753472222222222  30.6612723214286 2.26041666666667  C 32.2204241071429 3.76736111111111  33 5.85763888888889  33 8.53125  C 33 11.2170138888889  31.5943080357143 13.9513888888889  28.7829241071429 16.734375  L 17.3102678571429 27.671875  Z " fill-rule="nonzero" fill="#ffffff" stroke="none" transform="matrix(1 0 0 1 31 127 )" />
  </g>
</svg>